<svg xmlns="http://www.w3.org/2000/svg" viewBox="0 0 512 512" fill="#C5C5C5">
    <path d="M260.427611,164.012277 L349.313238,309.473155 C350.465126,311.358214 349.870773,313.820147 347.985714,314.972035 C347.35771,315.355784 346.636006,315.558833 345.900036,315.558833 L168.128783,315.558833 C165.919644,315.558833 164.128783,313.767972 164.128783,311.558833 C164.128783,310.822863 164.331832,310.101159 164.715581,309.473155 L253.601207,164.012277 C254.753096,162.127218 257.215028,161.532865 259.100087,162.684754 C259.641645,163.015679 260.096686,163.470719 260.427611,164.012277 Z" transform="translate(257.0144, 236.9927) rotate(90) translate(-257.0144, -236.9927)"/>
    <path d="M509.986375,15.0664099 C512.652923,17.8917025 513.580219,22.373223 510.682204,26.7861201 L412.553462,166.391881 L506.10117,220.716298 C508.454528,222.056975 509.631206,223.907259 509.631206,226.26715 C509.631206,228.627041 508.732267,230.703755 506.934389,232.497292 L238.713556,420.840591 C236.196843,422.542226 234.065724,424.380466 232.320201,426.355311 C230.574679,428.330157 229.046411,430.316005 227.7354,432.312857 L184.289306,493.909847 C180.093314,499.301835 175.447716,501.997828 170.352511,501.997828 C165.257306,501.997828 161.168723,499.301835 158.086762,493.909847 L11.9193732,278.943131 C4.28286359,267.815675 0.464608774,252.551058 0.464608774,233.14928 C0.464608774,213.747503 4.28286359,198.864163 11.9193732,188.499261 L108.580336,60.6529717 C124.061314,46.310586 140.563456,38.4419998 158.086762,37.0472131 C175.610069,35.6524264 194.32837,40.3258533 214.241666,51.0674937 L300.236415,101.428547 L270.196427,153.316419 L195.637002,111.112378 C184.973759,103.513567 174.677823,100.285623 164.749195,101.428547 C154.820567,102.57147 146.137108,107.367683 138.698819,115.817186 L60.5250944,223.716388 C59.2210421,226.358097 58.4213503,229.502394 58.1260189,233.14928 C57.8306875,236.796166 59.3677375,240.738746 62.737169,244.977018 L171.045982,405.023375 C171.29938,405.573535 171.608266,405.78827 171.97264,405.667581 C172.337013,405.546891 172.583886,405.332155 172.713257,405.023375 L188.223087,383.198239 C188.678689,382.479039 189.251598,381.811035 189.941813,381.194227 C190.977135,380.269015 192.779613,378.864485 193.007363,378.710861 C261.745998,332.344642 399.713089,234.544394 399.710768,234.523177 C399.708264,234.500296 401.767754,233.221032 401.574127,231.112601 C401.3805,229.004169 399.673223,228.138574 399.288807,227.87413 C395.213581,225.070734 371.079281,211.159209 326.885908,186.139554 L441.545023,21.7106655 C444.553359,18.285948 447.375557,15.8149383 450.011618,14.2976362 C452.647678,12.7803342 456.025323,11.682748 460.144552,11.0048779 L500.736297,11.0048779 C504.236468,10.8872732 507.319828,12.2411172 509.986375,15.0664099 Z"/>
</svg>
